<?xml version="1.0" encoding="UTF-8" standalone="no"?>
<!-- Created with Inkscape (http://www.inkscape.org/) -->

<svg
   width="45.354"
   height="45.354332"
   viewBox="0 0 11.999913 12"
   version="1.1"
   id="svg1"
   xmlns="http://www.w3.org/2000/svg"
   xmlns:svg="http://www.w3.org/2000/svg">
  <defs
     id="defs1" />
  <g
     id="layer1"
     transform="translate(-34.334658,-103.1347)">
    <path
       d="m 34.676386,109.11541 q 0,-0.30868 0.225999,-0.53468 0.225996,-0.226 0.540189,-0.226 0.314193,0 0.540192,0.226 0.225999,0.226 0.225999,0.54019 0,0.31971 -0.225999,0.54571 -0.220485,0.22048 -0.540192,0.22048 -0.325215,0 -0.545703,-0.22048 -0.220485,-0.22049 -0.220485,-0.55122 z m 3.483681,3.64354 q 0,-0.30868 0.225999,-0.53468 0.225999,-0.226 0.540192,-0.226 0.314193,0 0.540192,0.226 0.225999,0.226 0.225999,0.54019 0,0.3197 -0.225999,0.5457 -0.220488,0.22049 -0.540192,0.22049 -0.325218,0 -0.545703,-0.22049 -0.220488,-0.22048 -0.220488,-0.55121 z m 6.151568,-8.02019 q 0.68902,0 1.185113,0.50161 0.496094,0.49609 0.496094,1.19613 0,0.70556 -0.501605,1.20717 -0.496094,0.49609 -1.20165,0.49609 -0.705556,0 -1.207161,-0.49609 -0.496097,-0.50161 -0.496097,-1.20165 0,-0.7221 0.501608,-1.20717 0.501605,-0.49609 1.223698,-0.49609 z m -0.01103,0.84887 q -0.380339,0 -0.644925,0.24805 -0.259069,0.24805 -0.259069,0.61185 0,0.38585 0.264583,0.65594 0.264583,0.2701 0.628385,0.2701 0.374828,0 0.628386,-0.2701 0.264583,-0.27009 0.264583,-0.65594 0,-0.35829 -0.259072,-0.60634 -0.253558,-0.25356 -0.622871,-0.25356 z"
       id="text1"
       style="font-size:42.6667px;font-family:Futura;-inkscape-font-specification:Futura;white-space:pre;opacity:0.847145;fill:#ffffff;stroke-width:0.2;stroke-linejoin:round"
       aria-label=" ·.°" />
  </g>
</svg>
